<svg width="20" height="20" viewBox="0 0 20 20" fill="none" xmlns="http://www.w3.org/2000/svg">
<path d="M11.3738 18.3333H8.62634" stroke="#F64F00" stroke-width="1.5" stroke-linecap="round" stroke-linejoin="round"/>
<path d="M10.0001 6.13257V8.87859" stroke="#F64F00" stroke-width="1.5" stroke-linecap="round" stroke-linejoin="round"/>
<path d="M18.3334 14.1587C18.3334 14.4203 18.2818 14.6794 18.1816 14.9211C18.0815 15.1628 17.9346 15.3824 17.7495 15.5674C17.5644 15.7524 17.3447 15.8991 17.1029 15.9993C16.861 16.0994 16.6018 16.1509 16.3401 16.1509H3.65997C3.13132 16.1509 2.62433 15.941 2.25051 15.5674C1.8767 15.1938 1.66669 14.687 1.66669 14.1587C1.66669 13.8444 1.74106 13.5346 1.88373 13.2546C2.0264 12.9746 2.23332 12.7323 2.48758 12.5474V12.5474C2.94315 12.2163 3.31387 11.7821 3.56948 11.2804C3.8251 10.7787 3.95834 10.2237 3.95834 9.66067V7.92723C3.93669 6.37245 4.5016 4.86655 5.54064 3.70926C6.57968 2.55197 8.01664 1.82818 9.56548 1.68197C10.3932 1.62296 11.2243 1.7349 12.0069 2.01081C12.7894 2.28673 13.5068 2.72071 14.1143 3.28574C14.7219 3.85077 15.2065 4.53475 15.5381 5.29508C15.8697 6.05542 16.0411 6.87585 16.0417 7.70527V9.66068C16.0417 10.2237 16.1749 10.7787 16.4305 11.2804C16.6862 11.7821 17.0569 12.2163 17.5125 12.5474V12.5474C17.7667 12.7323 17.9736 12.9746 18.1163 13.2546C18.259 13.5346 18.3333 13.8444 18.3334 14.1587V14.1587Z" stroke="#828282" stroke-width="1.5" stroke-miterlimit="10" stroke-linecap="round"/>
</svg>
