<svg width="24" height="24" viewBox="0 0 24 24" fill="none" xmlns="http://www.w3.org/2000/svg">
<path d="M18.0239 13.55C17.605 13.96 17.3657 14.55 17.4255 15.18C17.5153 16.26 18.5027 17.05 19.5798 17.05H21.4747V18.24C21.4747 20.31 19.7892 22 17.7247 22H7.6516C8.47939 21.27 9.00798 20.2 9.00798 19C9.00798 16.79 7.22274 15 5.01862 15C4.08112 15 3.21343 15.33 2.52527 15.88V11.51C2.52527 9.44001 4.21077 7.75 6.27526 7.75H17.7247C19.7892 7.75 21.4747 9.44001 21.4747 11.51V12.95H19.4601C18.9016 12.95 18.3929 13.17 18.0239 13.55Z" stroke="#A7A7A7" stroke-width="1.5" stroke-linecap="round" stroke-linejoin="round"/>
<path d="M2.52527 11.51V7.84002C2.52527 6.65002 3.25332 5.58997 4.36037 5.16997L12.2793 2.16997C13.516 1.70997 14.8424 2.62 14.8424 3.95V7.74999" stroke="#A7A7A7" stroke-width="1.5" stroke-linecap="round" stroke-linejoin="round"/>
<path d="M22.5308 13.9702V16.0302C22.5308 16.5802 22.0919 17.0302 21.5334 17.0502H19.5786C18.5015 17.0502 17.5141 16.2602 17.4244 15.1802C17.3645 14.5502 17.6039 13.9602 18.0228 13.5502C18.3918 13.1702 18.9004 12.9502 19.459 12.9502H21.5334C22.0919 12.9702 22.5308 13.4202 22.5308 13.9702Z" stroke="#A7A7A7" stroke-width="1.5" stroke-linecap="round" stroke-linejoin="round"/>
<path d="M7.01331 12H13.9947" stroke="#A7A7A7" stroke-width="1.5" stroke-linecap="round" stroke-linejoin="round"/>
<path d="M9.00796 19C9.00796 20.2 8.47937 21.27 7.65158 22C6.94346 22.62 6.02591 23 5.0186 23C2.81448 23 1.02924 21.21 1.02924 19C1.02924 17.74 1.60769 16.61 2.52525 15.88C3.21341 15.33 4.0811 15 5.0186 15C7.22272 15 9.00796 16.79 9.00796 19Z" stroke="#A7A7A7" stroke-width="1.5" stroke-miterlimit="10" stroke-linecap="round" stroke-linejoin="round"/>
<path d="M5.26792 17.75V19.25L4.02124 20" stroke="#A7A7A7" stroke-width="1.5" stroke-miterlimit="10" stroke-linecap="round" stroke-linejoin="round"/>
</svg>
