<svg width="22" height="22" viewBox="0 0 22 22" fill="none" xmlns="http://www.w3.org/2000/svg">
<path d="M4.4177 20.7211L1.54822 20.9976C1.47477 21.0047 1.40068 20.9955 1.33123 20.9705C1.26178 20.9456 1.1987 20.9056 1.14652 20.8534C1.09434 20.8012 1.05435 20.7382 1.02942 20.6687C1.00449 20.5993 0.995227 20.5252 1.00231 20.4517L1.27889 17.5822C1.38774 16.4529 1.88597 15.3967 2.68821 14.5944L15.3057 1.97699C15.6154 1.66725 15.9831 1.42154 16.3878 1.25391C16.7925 1.08627 17.2263 1 17.6643 1C18.1024 1 18.5361 1.08627 18.9408 1.25391C19.3455 1.42154 19.7132 1.66725 20.023 1.97699V1.97699C20.3351 2.29214 20.5816 2.66611 20.7482 3.07724C20.9148 3.48837 20.9981 3.92846 20.9933 4.37202C20.9885 4.81559 20.8958 5.25379 20.7204 5.66124C20.545 6.06869 20.2905 6.43727 19.9716 6.74562L7.35416 19.3631C6.55997 20.139 5.52325 20.6184 4.4177 20.7211V20.7211Z" stroke="#F6F6F6" stroke-width="1.5" stroke-miterlimit="10" stroke-linecap="round"/>
<path d="M17.5147 4.48517L15.7815 6.21843" stroke="#F6F6F6" stroke-width="1.5" stroke-linecap="round" stroke-linejoin="round"/>
</svg>
