<svg width="16" height="16" viewBox="0 0 16 16" fill="none" xmlns="http://www.w3.org/2000/svg">
<g clip-path="url(#clip0_19_217)">
<path d="M5.33331 8.33333L6.99998 10L10.6666 6.33333" stroke="#F64F00" stroke-linecap="square"/>
<path d="M7.99998 14.6667C8.82418 14.6667 9.53191 14.1681 9.83811 13.4562C9.94631 13.2045 10.3038 13.0565 10.5583 13.1579C11.2783 13.4448 12.1312 13.2969 12.714 12.7141C13.2968 12.1313 13.4447 11.2783 13.1578 10.5584C13.0564 10.3039 13.2045 9.94633 13.4562 9.83813C14.1681 9.53193 14.6666 8.82419 14.6666 7.99999C14.6666 7.17579 14.1681 6.46809 13.4562 6.16187C13.2045 6.05363 13.0564 5.69612 13.1578 5.44163C13.4448 4.72169 13.2968 3.86873 12.714 3.28595C12.1312 2.70317 11.2783 2.55523 10.5584 2.84213C10.3038 2.94355 9.94631 2.79546 9.83811 2.54379C9.53191 1.83185 8.82418 1.33333 7.99998 1.33333C7.17578 1.33333 6.46807 1.83184 6.16186 2.54379C6.05362 2.79545 5.69611 2.94353 5.44162 2.84212C4.72167 2.55522 3.86872 2.70315 3.28594 3.28593C2.70316 3.86871 2.55522 4.72167 2.84212 5.44161C2.94354 5.69611 2.79545 6.05363 2.54378 6.16187C1.83183 6.46808 1.33331 7.17579 1.33331 7.99999C1.33331 8.82419 1.83183 9.53193 2.54377 9.83813C2.79543 9.94633 2.94352 10.3039 2.84211 10.5583C2.55521 11.2783 2.70314 12.1313 3.28592 12.7141C3.8687 13.2968 4.72165 13.4447 5.4416 13.1579C5.69609 13.0565 6.05362 13.2045 6.16186 13.4562C6.46807 14.1681 7.17578 14.6667 7.99998 14.6667Z" stroke="#F64F00" stroke-linecap="square"/>
</g>
<defs>
<clipPath id="clip0_19_217">
<rect width="16" height="16" fill="white"/>
</clipPath>
</defs>
</svg>
